<?xml version="1.0" encoding="UTF-8" standalone="no"?>
<!-- Created with Inkscape (http://www.inkscape.org/) -->

<svg
   width="170.46391mm"
   height="40.304428mm"
   viewBox="0 0 170.46391 40.304428"
   version="1.1"
   id="svg1"
   inkscape:export-filename="cogmath.svg"
   inkscape:export-xdpi="100"
   inkscape:export-ydpi="100"
   xmlns:inkscape="http://www.inkscape.org/namespaces/inkscape"
   xmlns:sodipodi="http://sodipodi.sourceforge.net/DTD/sodipodi-0.dtd"
   xmlns="http://www.w3.org/2000/svg"
   xmlns:svg="http://www.w3.org/2000/svg">
  <sodipodi:namedview
     id="namedview1"
     pagecolor="#ffffff"
     bordercolor="#666666"
     borderopacity="1.0"
     inkscape:showpageshadow="2"
     inkscape:pageopacity="0.0"
     inkscape:pagecheckerboard="0"
     inkscape:deskcolor="#d1d1d1"
     inkscape:document-units="mm"
     inkscape:zoom="0.92221485"
     inkscape:cx="405.54541"
     inkscape:cy="553.01647"
     inkscape:window-width="778"
     inkscape:window-height="962"
     inkscape:window-x="774"
     inkscape:window-y="0"
     inkscape:window-maximized="0"
     inkscape:current-layer="svg1" />
  <defs
     id="defs1" />
  <g
     id="g78"
     transform="translate(-27.387475,-78.427458)">
    <path
       id="rect87"
       style="fill:#8bacc2;fill-opacity:1;stroke:none;stroke-width:0.507828;stroke-dasharray:none;stroke-opacity:1"
       d="m 180.96765,88.516561 v 6.212024 H 27.387476 v 7.647595 H 180.96765 v 6.29316 L 197.8514,98.592948 Z" />
    <g
       inkscape:label="Rendered Gears"
       transform="matrix(0.90607599,-0.1925924,0.1925924,0.90607599,155.3278,98.579648)"
       id="g66"
       style="stroke-width:0.571258;stroke-dasharray:none">
      <path
         style="fill:#b0b0b0;fill-opacity:1;stroke:#000000;stroke-width:0.571258;stroke-dasharray:none"
         d="m 16.3297,-1.74595 2.226,-0.238 0.2899,0.0032 2.5983,0.80672 v 2.34806 l -2.5983,0.80672 -0.2899,0.0032 -2.226,-0.238 -0.7016,3.30094 2.1304,0.68798 0.2634,0.12081 2.0456,1.79379 -0.9551,2.14506 -2.7017,-0.31984 -0.2661,-0.11496 -1.9368,-1.12283 -1.9836,2.7302 1.6664,1.495 0.1915,0.2175 1.1391,2.4707 -1.7449,1.5712 -2.3381,-1.3911 -0.1963,-0.2133 -1.31267,-1.8135 -2.92257,1.6874 0.91423,2.0435 0.08652,0.2766 0.03567,2.7204 L 5.50995,20.7571 3.9398,18.5353 3.84719,18.2606 3.38567,16.07 0.02946,16.4228 0.03348,18.6615 0,18.9494 l -1.0739,2.4997 -2.33519,-0.2454 -0.53071,-2.6684 0.02711,-0.2886 0.46938,-2.1889 -3.20952,-1.0429 -0.90689,2.0468 -0.14769,0.2494 -1.99778,1.8468 -2.03351,-1.174 0.6005,-2.6535 0.1422,-0.2526 1.3191,-1.8088 -2.5079,-2.2581 -1.661,1.5009 -0.2363,0.1678 -2.5763,0.8746 -1.3801,-1.8996 1.6278,-2.17991 0.2327,-0.17295 1.9407,-1.11587 -1.3726,-3.08293 -2.1279,0.69561 -0.2841,0.05713 -2.7093,-0.24888 -0.4881,-2.29674 2.3737,-1.32931 0.2829,-0.06339 2.2268,-0.23001 v -3.3747 l -2.2268,-0.23001 -0.2829,-0.06339 -2.3737,-1.32931 0.4881,-2.29674 2.7093,-0.24888 0.2841,0.05713 2.1279,0.69561 1.3726,-3.08293 -1.9407,-1.11587 -0.2327,-0.17295 -1.6278,-2.17991 1.3801,-1.8996 2.5763,0.8746 0.2363,0.1678 1.661,1.5009 2.5079,-2.2581 -1.3191,-1.8088 -0.1422,-0.2526 -0.6005,-2.6535 2.03351,-1.174 1.99778,1.8468 0.14769,0.2494 0.90689,2.0468 3.20952,-1.0429 -0.46938,-2.1889 -0.02711,-0.2886 0.53071,-2.6684 2.33519,-0.2454 1.0739,2.4997 0.03348,0.2879 -0.00402,2.2387 3.35621,0.3528 0.46152,-2.1906 0.09261,-0.2747 1.57015,-2.2218 2.23313,0.7256 -0.03567,2.7204 -0.08652,0.2766 -0.91423,2.0435 2.92257,1.6874 1.31267,-1.8135 0.1963,-0.2133 2.3381,-1.3911 1.7449,1.5712 -1.1391,2.4707 -0.1915,0.2175 -1.6664,1.495 1.9836,2.7302 1.9368,-1.12283 0.2661,-0.11496 2.7017,-0.31984 0.9551,2.14506 -2.0456,1.79379 -0.2634,0.12081 -2.1304,0.68798 z"
         id="path65" />
    </g>
    <g
       inkscape:label="Rendered Gears"
       transform="matrix(-0.25444275,-0.94959329,0.94959329,-0.25444275,113.83773,98.56163)"
       id="g71"
       style="stroke-width:0.538268;stroke-dasharray:none">
      <path
         style="fill:#969696;fill-opacity:1;stroke:#000000;stroke-width:0.538268;stroke-dasharray:none"
         d="m 12.4989,-1.83541 1.5952,-0.23426 0.9357,0.09096 2.6389,1.19459 v 1.56824 l -2.6389,1.19459 -0.9357,0.09096 -1.5952,-0.23426 -0.7568,2.82452 1.4986,0.59475 0.7649,0.54661 1.688,2.35399 -0.7841,1.35814 -2.8827,-0.2849 -0.8558,-0.38907 -1.26436,-1.0005 -2.06769,2.06769 1.0005,1.26436 0.38907,0.8558 0.2849,2.8827 -1.35814,0.7841 -2.35399,-1.688 -0.54661,-0.7649 -0.59475,-1.4986 -2.82452,0.7568 0.23426,1.5952 -0.09096,0.9357 -1.19459,2.6389 h -1.56824 l -1.19459,-2.6389 -0.09096,-0.9357 0.23426,-1.5952 -2.82452,-0.7568 -0.59475,1.4986 -0.54661,0.7649 -2.35399,1.688 -1.35814,-0.7841 0.2849,-2.8827 0.38907,-0.8558 1.0005,-1.26436 -2.06769,-2.06769 -1.26436,1.0005 -0.8558,0.38907 -2.8827,0.2849 -0.7841,-1.35814 1.688,-2.35399 0.7649,-0.54661 1.4986,-0.59475 -0.7568,-2.82452 -1.5952,0.23426 -0.9357,-0.09096 -2.6389,-1.19459 v -1.56824 l 2.6389,-1.19459 0.9357,-0.09096 1.5952,0.23426 0.7568,-2.82452 -1.4986,-0.59475 -0.7649,-0.54661 -1.688,-2.35399 0.7841,-1.35814 2.8827,0.2849 0.8558,0.38907 1.26436,1.0005 2.06769,-2.06769 -1.0005,-1.26436 -0.38907,-0.8558 -0.2849,-2.8827 1.35814,-0.7841 2.35399,1.688 0.54661,0.7649 0.59475,1.4986 2.82452,-0.7568 -0.23426,-1.5952 0.09096,-0.9357 1.19459,-2.6389 h 1.56824 l 1.19459,2.6389 0.09096,0.9357 -0.23426,1.5952 2.82452,0.7568 0.59475,-1.4986 0.54661,-0.7649 2.35399,-1.688 1.35814,0.7841 -0.2849,2.8827 -0.38907,0.8558 -1.0005,1.26436 2.06769,2.06769 1.26436,-1.0005 0.8558,-0.38907 2.8827,-0.2849 0.7841,1.35814 -1.688,2.35399 -0.7649,0.54661 -1.4986,0.59475 z"
         id="path70" />
    </g>
    <g
       inkscape:label="Rendered Gears"
       transform="matrix(1.0819275,0,0,1.0819275,78.651247,98.56163)"
       id="g73"
       style="stroke-width:0.489096;stroke-dasharray:none">
      <path
         style="fill:#7d7d7d;fill-opacity:1;stroke:#000000;stroke-width:0.489096;stroke-dasharray:none"
         d="m 8.61362,-2.00124 0.97732,-0.22706 1.60596,0.25398 2.6976,1.7556 V 0.21872 L 11.1969,1.97432 9.59094,2.2283 8.61362,2.00124 7.88479,4.00369 8.77941,4.45795 9.84639,5.68482 10.7844,8.76366 10.5032,9.09876 7.30826,8.70964 5.91476,7.87191 5.31204,7.06977 3.46658,8.13525 3.8599,9.05829 3.88864,10.684 2.62815,13.6454 2.19736,13.7214 0,11.3696 -0.529,9.83217 -0.4751,8.83027 -2.57369,8.46024 -2.8657,9.42015 -3.88864,10.684 -6.75783,12.1424 -7.13666,11.9236 -7.30826,8.70964 -6.72524,7.19184 -6.03994,6.459 -7.40969,4.82658 -8.25041,5.37421 -9.84639,5.68482 -12.9817,4.95773 -13.1314,4.54667 -11.1969,1.97432 -9.77466,1.18637 -8.77862,1.06548 v -2.13096 l -0.99604,-0.12089 -1.42224,-0.78795 -1.9345,-2.57235 0.1497,-0.41106 3.13531,-0.72709 1.59598,0.31061 0.84072,0.54763 1.36975,-1.63242 -0.6853,-0.73284 -0.58302,-1.5178 0.1716,-3.21396 0.37883,-0.2188 2.86919,1.4584 1.02294,1.26385 0.29201,0.95991 2.09859,-0.37003 -0.0539,-1.0019 0.529,-1.53743 2.19736,-2.3518 0.43079,0.076 1.26049,2.9614 -0.02874,1.62571 -0.39332,0.92304 1.84546,1.06548 0.60272,-0.80214 1.3935,-0.83773 3.19494,-0.38912 0.2812,0.3351 -0.93801,3.07884 -1.06698,1.22687 -0.89462,0.45426 z"
         id="path72" />
    </g>
    <g
       inkscape:label="Rendered Gears"
       transform="matrix(1.397257,0,0,1.397257,47.508503,98.56163)"
       id="g77"
       style="stroke-width:0.378718;stroke-dasharray:none">
      <path
         style="fill:#636363;fill-opacity:1;stroke:#000000;stroke-width:0.378718;stroke-dasharray:none"
         d="m 4.80367,-1.5682 1.43648,-0.46895 1.08133,0.07537 2.78442,1.87318 V 0.0886 L 7.32148,1.96178 6.24015,2.03715 4.80367,1.5682 3.75994,3.376 4.8843,4.38555 5.3597,5.3597 5.12971,8.70771 4.97624,8.79631 1.96178,7.32148 1.35585,6.42271 1.04373,4.9442 H -1.04373 L -1.35585,6.42271 -1.96178,7.32148 -4.97624,8.79631 -5.12971,8.70771 -5.3597,5.3597 -4.8843,4.38555 -3.75994,3.376 -4.80367,1.5682 -6.24015,2.03715 -7.32148,1.96178 -10.1059,0.0886 v -0.1772 l 2.78442,-1.87318 1.08133,-0.07537 1.43648,0.46895 1.04373,-1.8078 -1.12436,-1.00955 -0.4754,-0.97415 0.22999,-3.34801 0.15347,-0.0886 3.01446,1.47483 0.60593,0.89877 0.31212,1.47851 H 1.04373 L 1.35585,-6.42271 1.96178,-7.32148 4.97624,-8.79631 5.12971,-8.70771 5.3597,-5.3597 4.8843,-4.38555 3.75994,-3.376 Z"
         id="path76" />
    </g>
    <ellipse
       style="fill:#ffffff;fill-opacity:1;stroke:#000000;stroke-width:0.529167;stroke-dasharray:none"
       id="path86"
       cx="155.2412"
       cy="98.579674"
       rx="3.5688007"
       ry="3.5502048" />
    <ellipse
       style="fill:#ffffff;fill-opacity:1;stroke:#000000;stroke-width:0.529167;stroke-dasharray:none"
       id="path86-7"
       cx="113.83773"
       cy="98.56163"
       rx="3.5688007"
       ry="3.5502048" />
    <ellipse
       style="fill:#ffffff;fill-opacity:1;stroke:#000000;stroke-width:0.529167;stroke-dasharray:none"
       id="path86-5"
       cx="79.047485"
       cy="98.56163"
       rx="3.5688007"
       ry="3.5502048" />
    <ellipse
       style="fill:#ffffff;fill-opacity:1;stroke:#000000;stroke-width:0.529167;stroke-dasharray:none"
       id="path86-2"
       cx="47.508503"
       cy="98.56163"
       rx="3.5688007"
       ry="3.5502048" />
  </g>
</svg>
