<?xml version="1.0" encoding="UTF-8" standalone="no"?>
<!DOCTYPE svg PUBLIC "-//W3C//DTD SVG 1.1//EN"
 "http://www.w3.org/Graphics/SVG/1.1/DTD/svg11.dtd">
<!-- Generated by graphviz version 9.0.0 (20230911.1827)
 -->
<!-- Title: square&#45;peg Pages: 1 -->
<svg width="206pt" height="332pt"
 viewBox="0.00 0.00 206.00 332.00" xmlns="http://www.w3.org/2000/svg" xmlns:xlink="http://www.w3.org/1999/xlink">
<g id="graph0" class="graph" transform="scale(1 1) rotate(0) translate(4 328)">
<title>square&#45;peg</title>
<polygon fill="white" stroke="none" points="-4,4 -4,-328 202,-328 202,4 -4,4"/>
<!-- a1 -->
<g id="node1" class="node">
<title>a1</title>
<ellipse fill="none" stroke="black" cx="135" cy="-306" rx="27" ry="18"/>
<text text-anchor="middle" x="135" y="-300.57" font-family="Times New Roman,serif" font-size="14.00">add</text>
</g>
<!-- a2 -->
<g id="node2" class="node">
<title>a2</title>
<ellipse fill="none" stroke="black" cx="99" cy="-234" rx="27" ry="18"/>
<text text-anchor="middle" x="99" y="-228.57" font-family="Times New Roman,serif" font-size="14.00">add</text>
</g>
<!-- a1&#45;&gt;a2 -->
<g id="edge1" class="edge">
<title>a1&#45;&gt;a2</title>
<path fill="none" stroke="black" d="M126.65,-288.76C122.42,-280.55 117.19,-270.37 112.42,-261.09"/>
<polygon fill="black" stroke="black" points="115.68,-259.79 108,-252.49 109.46,-262.99 115.68,-259.79"/>
</g>
<!-- a9 -->
<g id="node9" class="node">
<title>a9</title>
<ellipse fill="none" stroke="black" cx="171" cy="-234" rx="27" ry="18"/>
<text text-anchor="middle" x="171" y="-228.57" font-family="Times New Roman,serif" font-size="14.00">cos</text>
</g>
<!-- a1&#45;&gt;a9 -->
<g id="edge8" class="edge">
<title>a1&#45;&gt;a9</title>
<path fill="none" stroke="black" d="M143.35,-288.76C147.58,-280.55 152.81,-270.37 157.58,-261.09"/>
<polygon fill="black" stroke="black" points="160.54,-262.99 162,-252.49 154.32,-259.79 160.54,-262.99"/>
</g>
<!-- a3 -->
<g id="node3" class="node">
<title>a3</title>
<ellipse fill="none" stroke="black" cx="27" cy="-162" rx="27" ry="18"/>
<text text-anchor="middle" x="27" y="-156.57" font-family="Times New Roman,serif" font-size="14.00">sin</text>
</g>
<!-- a2&#45;&gt;a3 -->
<g id="edge2" class="edge">
<title>a2&#45;&gt;a3</title>
<path fill="none" stroke="black" d="M84.08,-218.5C74.23,-208.92 61.14,-196.19 49.97,-185.34"/>
<polygon fill="black" stroke="black" points="52.59,-183 42.98,-178.54 47.71,-188.02 52.59,-183"/>
</g>
<!-- a5 -->
<g id="node5" class="node">
<title>a5</title>
<ellipse fill="none" stroke="black" cx="99" cy="-162" rx="27" ry="18"/>
<text text-anchor="middle" x="99" y="-156.57" font-family="Times New Roman,serif" font-size="14.00">mul</text>
</g>
<!-- a2&#45;&gt;a5 -->
<g id="edge4" class="edge">
<title>a2&#45;&gt;a5</title>
<path fill="none" stroke="black" d="M99,-215.7C99,-208.41 99,-199.73 99,-191.54"/>
<polygon fill="black" stroke="black" points="102.5,-191.62 99,-181.62 95.5,-191.62 102.5,-191.62"/>
</g>
<!-- a4 -->
<g id="node4" class="node">
<title>a4</title>
<ellipse fill="none" stroke="black" cx="27" cy="-90" rx="27" ry="18"/>
<text text-anchor="middle" x="27" y="-84.58" font-family="Times New Roman,serif" font-size="14.00">x0</text>
</g>
<!-- a3&#45;&gt;a4 -->
<g id="edge3" class="edge">
<title>a3&#45;&gt;a4</title>
<path fill="none" stroke="black" d="M27,-143.7C27,-136.41 27,-127.73 27,-119.54"/>
<polygon fill="black" stroke="black" points="30.5,-119.62 27,-109.62 23.5,-119.62 30.5,-119.62"/>
</g>
<!-- a6 -->
<g id="node6" class="node">
<title>a6</title>
<ellipse fill="none" stroke="black" cx="99" cy="-90" rx="27" ry="18"/>
<text text-anchor="middle" x="99" y="-84.58" font-family="Times New Roman,serif" font-size="14.00">cos</text>
</g>
<!-- a5&#45;&gt;a6 -->
<g id="edge5" class="edge">
<title>a5&#45;&gt;a6</title>
<path fill="none" stroke="black" d="M99,-143.7C99,-136.41 99,-127.73 99,-119.54"/>
<polygon fill="black" stroke="black" points="102.5,-119.62 99,-109.62 95.5,-119.62 102.5,-119.62"/>
</g>
<!-- a8 -->
<g id="node8" class="node">
<title>a8</title>
<ellipse fill="none" stroke="black" cx="171" cy="-90" rx="27" ry="18"/>
<text text-anchor="middle" x="171" y="-84.58" font-family="Times New Roman,serif" font-size="14.00">1</text>
</g>
<!-- a5&#45;&gt;a8 -->
<g id="edge7" class="edge">
<title>a5&#45;&gt;a8</title>
<path fill="none" stroke="black" d="M113.92,-146.5C123.77,-136.92 136.86,-124.19 148.03,-113.34"/>
<polygon fill="black" stroke="black" points="150.29,-116.02 155.02,-106.54 145.41,-111 150.29,-116.02"/>
</g>
<!-- a7 -->
<g id="node7" class="node">
<title>a7</title>
<ellipse fill="none" stroke="black" cx="99" cy="-18" rx="27" ry="18"/>
<text text-anchor="middle" x="99" y="-12.57" font-family="Times New Roman,serif" font-size="14.00">x0</text>
</g>
<!-- a6&#45;&gt;a7 -->
<g id="edge6" class="edge">
<title>a6&#45;&gt;a7</title>
<path fill="none" stroke="black" d="M99,-71.7C99,-64.41 99,-55.73 99,-47.54"/>
<polygon fill="black" stroke="black" points="102.5,-47.62 99,-37.62 95.5,-47.62 102.5,-47.62"/>
</g>
<!-- a10 -->
<g id="node10" class="node">
<title>a10</title>
<ellipse fill="none" stroke="black" cx="171" cy="-162" rx="27" ry="18"/>
<text text-anchor="middle" x="171" y="-156.57" font-family="Times New Roman,serif" font-size="14.00">x0</text>
</g>
<!-- a9&#45;&gt;a10 -->
<g id="edge9" class="edge">
<title>a9&#45;&gt;a10</title>
<path fill="none" stroke="black" d="M171,-215.7C171,-208.41 171,-199.73 171,-191.54"/>
<polygon fill="black" stroke="black" points="174.5,-191.62 171,-181.62 167.5,-191.62 174.5,-191.62"/>
</g>
</g>
</svg>
