<?xml version="1.0" encoding="us-ascii" standalone="no"?><svg xmlns="http://www.w3.org/2000/svg" xmlns:xlink="http://www.w3.org/1999/xlink" contentStyleType="text/css" height="512.5px" preserveAspectRatio="none" style="width:637px;height:512px;" version="1.1" viewBox="0 0 637 512" width="637.5px" zoomAndPan="magnify"><defs/><g><!--entity a--><g id="elem_a"><rect fill="#FFFFFF" height="61.0397" rx="3.9063" ry="3.9063" style="stroke:#696969;stroke-width:1.5625;" width="143.75" x="10.9375" y="10.9375"/><text fill="#696969" font-family="Open Sans" font-size="21.875" lengthAdjust="spacing" textLength="112.5" x="26.5625" y="49.9435">Population</text></g><!--entity b--><g id="elem_b"><rect fill="#FFFFFF" height="61.0397" rx="3.9063" ry="3.9063" style="stroke:#696969;stroke-width:1.5625;" width="150" x="217.1875" y="10.9375"/><text fill="#696969" font-family="Open Sans" font-size="21.875" lengthAdjust="spacing" textLength="68.75" x="232.8125" y="49.9435">Parent</text><text fill="#696969" font-family="Open Sans" font-size="21.875" lengthAdjust="spacing" textLength="6.25" x="301.5625" y="49.9435">&#160;</text><text fill="#696969" font-family="Open Sans" font-size="21.875" lengthAdjust="spacing" textLength="43.75" x="307.8125" y="49.9435">Pool</text></g><!--entity c--><g id="elem_c"><rect fill="#FFFFFF" height="61.0397" rx="3.9063" ry="3.9063" style="stroke:#696969;stroke-width:1.5625;" width="204.6875" x="189.8438" y="118.75"/><text fill="#696969" font-family="Open Sans" font-size="21.875" lengthAdjust="spacing" textLength="68.75" x="205.4688" y="157.756">Parent</text><text fill="#696969" font-family="Open Sans" font-size="21.875" lengthAdjust="spacing" textLength="6.25" x="274.2188" y="157.756">&#160;</text><text fill="#696969" font-family="Open Sans" font-size="21.875" lengthAdjust="spacing" textLength="98.4375" x="280.4688" y="157.756">Evaluator</text></g><!--entity d--><g id="elem_d"><rect fill="#FFFFFF" height="61.0397" rx="3.9063" ry="3.9063" style="stroke:#000000;stroke-width:3.125;" width="196.875" x="193.75" y="226.5625"/><text fill="#000000" font-family="Open Sans" font-size="21.875" font-weight="bold" lengthAdjust="spacing" textLength="71.875" x="209.375" y="265.5685">Parent</text><text fill="#000000" font-family="Open Sans" font-size="21.875" font-weight="bold" lengthAdjust="spacing" textLength="6.25" x="281.25" y="265.5685">&#160;</text><text fill="#000000" font-family="Open Sans" font-size="21.875" font-weight="bold" lengthAdjust="spacing" textLength="87.5" x="287.5" y="265.5685">Selector</text></g><!--entity e--><g id="elem_e"><rect fill="#FFFFFF" height="61.0397" rx="3.9063" ry="3.9063" style="stroke:#696969;stroke-width:1.5625;" width="114.0625" x="453.9063" y="226.5625"/><text fill="#696969" font-family="Open Sans" font-size="21.875" lengthAdjust="spacing" textLength="82.8125" x="469.5313" y="265.5685">Variator</text></g><!--entity f--><g id="elem_f"><rect fill="#FFFFFF" height="61.0397" rx="3.9063" ry="3.9063" style="stroke:#696969;stroke-width:1.5625;" width="235.9375" x="392.9688" y="334.375"/><text fill="#696969" font-family="Open Sans" font-size="21.875" lengthAdjust="spacing" textLength="100" x="408.5938" y="373.381">Offspring</text><text fill="#696969" font-family="Open Sans" font-size="21.875" lengthAdjust="spacing" textLength="6.25" x="508.5938" y="373.381">&#160;</text><text fill="#696969" font-family="Open Sans" font-size="21.875" lengthAdjust="spacing" textLength="98.4375" x="514.8438" y="373.381">Evaluator</text></g><!--entity g--><g id="elem_g"><rect fill="#FFFFFF" height="61.0397" rx="3.9063" ry="3.9063" style="stroke:#000000;stroke-width:3.125;" width="215.625" x="403.125" y="442.1875"/><text fill="#000000" font-family="Open Sans" font-size="21.875" font-weight="bold" lengthAdjust="spacing" textLength="90.625" x="418.75" y="481.1935">Survivor</text><text fill="#000000" font-family="Open Sans" font-size="21.875" font-weight="bold" lengthAdjust="spacing" textLength="6.25" x="509.375" y="481.1935">&#160;</text><text fill="#000000" font-family="Open Sans" font-size="21.875" font-weight="bold" lengthAdjust="spacing" textLength="87.5" x="515.625" y="481.1935">Selector</text></g><!--link a to b--><g id="link_a_b"><path d="M154.875,42.1875 C174.9844,42.1875 187.5,42.1875 207.7656,42.1875 " fill="none" id="a-to-b" style="stroke:#696969;stroke-width:1.5625;"/><polygon fill="#696969" points="217.1406,42.1875,203.0781,35.9375,209.3281,42.1875,203.0781,48.4375,217.1406,42.1875" style="stroke:#696969;stroke-width:1.5625;"/></g><!--link b to c--><g id="link_b_c"><path d="M292.1875,72.0156 C292.1875,86.4531 292.1875,94.2813 292.1875,108.7813 " fill="none" id="b-to-c" style="stroke:#696969;stroke-width:1.5625;"/><polygon fill="#696969" points="292.1875,118.1563,298.4375,104.0938,292.1875,110.3438,285.9375,104.0938,292.1875,118.1563" style="stroke:#696969;stroke-width:1.5625;"/></g><!--link c to d--><g id="link_c_d"><path d="M292.1875,179.8281 C292.1875,194.2656 292.1875,202.0938 292.1875,216.5938 " fill="none" id="c-to-d" style="stroke:#696969;stroke-width:1.5625;"/><polygon fill="#696969" points="292.1875,225.9688,298.4375,211.9063,292.1875,218.1563,285.9375,211.9063,292.1875,225.9688" style="stroke:#696969;stroke-width:1.5625;"/></g><!--link d to e--><g id="link_d_e"><path d="M390.6875,257.8125 C412.2344,257.8125 424.9688,257.8125 444.2656,257.8125 " fill="none" id="d-to-e" style="stroke:#696969;stroke-width:1.5625;"/><polygon fill="#696969" points="453.6406,257.8125,439.5781,251.5625,445.8281,257.8125,439.5781,264.0625,453.6406,257.8125" style="stroke:#696969;stroke-width:1.5625;"/></g><!--link e to f--><g id="link_e_f"><path d="M510.9375,287.6406 C510.9375,302.0781 510.9375,309.9063 510.9375,324.4063 " fill="none" id="e-to-f" style="stroke:#696969;stroke-width:1.5625;"/><polygon fill="#696969" points="510.9375,333.7813,517.1875,319.7188,510.9375,325.9688,504.6875,319.7188,510.9375,333.7813" style="stroke:#696969;stroke-width:1.5625;"/></g><!--link f to g--><g id="link_f_g"><path d="M510.9375,395.4531 C510.9375,409.8906 510.9375,417.7188 510.9375,432.2188 " fill="none" id="f-to-g" style="stroke:#696969;stroke-width:1.5625;"/><polygon fill="#696969" points="510.9375,441.5938,517.1875,427.5313,510.9375,433.7813,504.6875,427.5313,510.9375,441.5938" style="stroke:#696969;stroke-width:1.5625;"/></g><!--link g to a--><g id="link_g_a"><path d="M402.9063,473.4375 C276.0781,473.4375 82.8125,473.4375 82.8125,473.4375 C82.8125,473.4375 82.8125,180.9063 82.8125,81.8594 " fill="none" id="g-to-a" style="stroke:#696969;stroke-width:1.5625;"/><polygon fill="#696969" points="82.8125,72.4844,76.5625,86.5469,82.8125,80.2969,89.0625,86.5469,82.8125,72.4844" style="stroke:#696969;stroke-width:1.5625;"/></g><!--SRC=[ZP91ZzCm48Nl-HNJK0cfeYaId41T2GGI5xJLLknbnM4IJrohZYUodIpTNyyuJPUMHQ4vPSRlc_V6oMnkJQcCXpNanKhUysmsDuq-Rwr2h_FiDQpNS4SLDmqvHGeswB6XI29SPq9zsxQUK0ds_gsKzy_bkrJUKMZP1VfE8Q2cpsJvyPFt_2Y26cqWCJ2kifsYeW0J027kgA4tG0vBAtxbOHGOfy74GW09LvGO2BWdxusYaA0ZcCt6SJ2kk9AwqBrvAjgkiI-FJyEEnyTzRqCR3JkqVxODgI-di_aFsOOTXnOhKb-enix6S5e7ih0thasKn7GK3wt4z7776KXmgYD41c_qBeAuKvLyqjZMesuGB1wuYq1sVzQCn4yGVPSkwv_vJSL5Wq5YZbjaQJ8wRGdo3RUTnUIJ0wOBVfM2VL3okJqTFaRw5K_59OUUN8GDint0SWfyoNtjqNOOsGzmTIMyM8pubgnqsIyM0w-EV56oLHSfxz6RPnUwqkMshaFhqmzrcRA-EkMsyxtfsV-TKv_dH5ZUoBLD3IrXAPh9sycgGQEcD2evqQGJ3LCcDypgGQEdD1gM3uuzkltFc__yIyFp6m00]--></g></svg>